<svg width="13" height="12" viewBox="0 0 13 12" fill="none" xmlns="http://www.w3.org/2000/svg">
<mask id="mask0_28_128" style="mask-type:alpha" maskUnits="userSpaceOnUse" x="1" y="1" width="10" height="10">
<path d="M5.05759 8C5.05759 6.48122 6.2888 5.25 7.80759 5.25C9.32637 5.25 10.5576 6.48122 10.5576 8V11H5.05759V8Z" fill="#BEC0C5"/>
<path fill-rule="evenodd" clip-rule="evenodd" d="M4.33928 6.57145C4.16998 6.52488 3.99169 6.5 3.80759 6.5C2.70302 6.5 1.80759 7.39543 1.80759 8.5V11H4.05759V8C4.05759 7.49418 4.15774 7.01174 4.33928 6.57145Z" fill="#BEC0C5"/>
<path d="M9.55759 2.75C9.55759 3.7165 8.77409 4.5 7.80759 4.5C6.84109 4.5 6.05759 3.7165 6.05759 2.75C6.05759 1.7835 6.84109 1 7.80759 1C8.77409 1 9.55759 1.7835 9.55759 2.75Z" fill="#BEC0C5"/>
<path d="M5.05759 4.5C5.05759 5.19036 4.49794 5.75 3.80759 5.75C3.11723 5.75 2.55759 5.19036 2.55759 4.5C2.55759 3.80964 3.11723 3.25 3.80759 3.25C4.49794 3.25 5.05759 3.80964 5.05759 4.5Z" fill="#BEC0C5"/>
</mask>
<g mask="url(#mask0_28_128)">
<rect x="0.307587" width="12" height="12" fill="#13A8A1"/>
</g>
</svg>
